<?xml version="1.0" standalone="no"?>
<!DOCTYPE svg PUBLIC "-//W3C//DTD SVG 20010904//EN"
 "http://www.w3.org/TR/2001/REC-SVG-20010904/DTD/svg10.dtd">
<svg version="1.0" xmlns="http://www.w3.org/2000/svg"
 width="512.000000pt" height="512.000000pt" viewBox="0 0 512.000000 512.000000"
 preserveAspectRatio="xMidYMid meet">
<metadata>
Created by potrace 1.14, written by Peter Selinger 2001-2017
</metadata>
<g transform="translate(0.000000,512.000000) scale(0.100000,-0.100000)"
fill="#000000" stroke="none">
<path d="M2250 5105 c-861 -106 -1609 -640 -1990 -1420 -119 -243 -191 -473
-237 -750 -26 -156 -26 -581 0 -745 43 -273 117 -510 237 -755 281 -572 748
-1009 1335 -1249 615 -250 1315 -250 1930 0 403 165 765 435 1037 774 225 281
401 639 487 991 55 226 66 328 66 609 0 281 -11 383 -66 609 -112 458 -370
909 -705 1231 -408 393 -928 639 -1489 706 -146 17 -460 16 -605 -1z m-85
-1420 c165 -31 258 -102 296 -225 42 -138 11 -267 -85 -359 -126 -118 -299
-159 -542 -127 -102 13 -261 53 -326 80 -33 15 -148 -248 -195 -444 -34 -146
-43 -380 -19 -500 54 -272 221 -392 503 -361 54 6 127 20 163 32 155 51 313
154 398 261 114 144 158 130 149 -47 -5 -110 -29 -176 -96 -265 -110 -146
-299 -252 -524 -295 -100 -19 -324 -20 -437 -1 -371 60 -604 304 -628 659 -15
206 15 433 83 645 46 139 149 345 225 451 l61 84 -41 58 c-50 71 -97 173 -106
228 -13 84 50 119 118 64 18 -15 68 -60 111 -101 44 -41 84 -71 92 -69 7 3 39
25 71 50 120 90 286 162 428 186 82 14 218 12 301 -4z m1840 -8 c83 -24 122
-43 170 -88 59 -55 82 -100 96 -191 30 -194 -89 -353 -312 -414 -140 -39 -400
-17 -596 50 l-72 25 -30 -52 c-43 -76 -99 -210 -126 -305 -77 -264 -76 -572 1
-738 96 -204 337 -273 631 -179 140 44 234 106 366 238 75 76 123 117 134 115
62 -12 55 -205 -12 -338 -36 -71 -145 -182 -231 -236 -160 -100 -328 -144
-549 -144 -310 0 -500 65 -660 225 -92 91 -141 179 -177 310 -28 106 -30 360
-4 510 50 278 166 556 314 753 l41 54 -49 72 c-105 153 -131 306 -54 306 37 0
61 -15 148 -98 125 -116 114 -113 193 -53 124 94 301 169 458 195 55 8 269 -3
320 -17z"/>
<path d="M1893 3396 c-74 -19 -151 -59 -208 -110 l-50 -44 28 -11 c102 -39
355 -54 428 -24 76 30 85 126 16 177 -34 25 -138 31 -214 12z"/>
<path d="M3681 3394 c-30 -8 -75 -26 -101 -40 -49 -26 -133 -91 -141 -109 -13
-28 318 -69 414 -51 20 4 50 18 67 32 25 21 30 33 30 68 0 50 -21 83 -66 102
-42 18 -133 17 -203 -2z"/>
</g>
</svg>
